<svg width="438" height="254" viewBox="0 0 438 254" fill="none" xmlns="http://www.w3.org/2000/svg">
<g clip-path="url(#clip0_213_2)">
<path fill-rule="evenodd" clip-rule="evenodd" d="M0.505493 45.1131L450 45.1132V44.6073L0.505493 44.6072V45.1131Z" fill="url(#paint0_linear_213_2)" fill-opacity="0.3"/>
<path fill-rule="evenodd" clip-rule="evenodd" d="M205.546 253.529V2.10985e-08L205.04 0V253.529H205.546Z" fill="url(#paint1_linear_213_2)" fill-opacity="0.3"/>
<path fill-rule="evenodd" clip-rule="evenodd" d="M0.505493 97.2164L450 97.2165V96.7106H0.505493V97.2164Z" fill="url(#paint2_linear_213_2)" fill-opacity="0.3"/>
<path fill-rule="evenodd" clip-rule="evenodd" d="M256.806 253.529V2.11003e-08L256.3 0V253.529H256.806Z" fill="url(#paint3_linear_213_2)" fill-opacity="0.3"/>
<path fill-rule="evenodd" clip-rule="evenodd" d="M0.505859 253.529L0.505881 2.11003e-08L2.21642e-05 0L0 253.529H0.505859Z" fill="url(#paint4_linear_213_2)" fill-opacity="0.3"/>
<path fill-rule="evenodd" clip-rule="evenodd" d="M0.505493 149.321H450V148.815H0.505493V149.321Z" fill="url(#paint5_linear_213_2)" fill-opacity="0.3"/>
<path fill-rule="evenodd" clip-rule="evenodd" d="M308.066 253.529V2.11003e-08L307.56 0V253.529H308.066Z" fill="url(#paint6_linear_213_2)" fill-opacity="0.3"/>
<path fill-rule="evenodd" clip-rule="evenodd" d="M51.7662 253.529V2.11003e-08L51.2603 0V253.529H51.7662Z" fill="url(#paint7_linear_213_2)" fill-opacity="0.3"/>
<path fill-rule="evenodd" clip-rule="evenodd" d="M0.505493 201.424H450V200.918H0.505493V201.424Z" fill="url(#paint8_linear_213_2)" fill-opacity="0.3"/>
<path fill-rule="evenodd" clip-rule="evenodd" d="M359.326 253.529V2.11094e-08L358.82 0V253.529H359.326Z" fill="url(#paint9_linear_213_2)" fill-opacity="0.3"/>
<path fill-rule="evenodd" clip-rule="evenodd" d="M103.026 253.529V2.11003e-08L102.52 0V253.529H103.026Z" fill="url(#paint10_linear_213_2)" fill-opacity="0.3"/>
<path fill-rule="evenodd" clip-rule="evenodd" d="M410.586 253.529V2.11101e-08L410.08 0V253.529H410.586Z" fill="url(#paint11_linear_213_2)" fill-opacity="0.3"/>
<path fill-rule="evenodd" clip-rule="evenodd" d="M154.286 253.529V2.11003e-08L153.78 0V253.529H154.286Z" fill="url(#paint12_linear_213_2)" fill-opacity="0.3"/>
<path d="M308.067 45.1138L358.821 45.1138L358.821 96.712L308.067 96.712L308.067 45.1138Z" fill="#80A820" fill-opacity="0.08"/>
<path d="M256.803 97.2163L307.559 97.2163L307.559 148.815L256.803 148.815L256.803 97.2163Z" fill="#80A820" fill-opacity="0.08"/>
</g>
<defs>
<linearGradient id="paint0_linear_213_2" x1="277.872" y1="-7.84257e-05" x2="194.87" y2="235.867" gradientUnits="userSpaceOnUse">
<stop stop-color="#B2B2B2"/>
<stop offset="1" stop-color="#B2B2B2" stop-opacity="0"/>
</linearGradient>
<linearGradient id="paint1_linear_213_2" x1="277.874" y1="9.73575e-06" x2="194.873" y2="235.868" gradientUnits="userSpaceOnUse">
<stop stop-color="#B2B2B2"/>
<stop offset="1" stop-color="#B2B2B2" stop-opacity="0"/>
</linearGradient>
<linearGradient id="paint2_linear_213_2" x1="277.872" y1="0.000433058" x2="194.871" y2="235.867" gradientUnits="userSpaceOnUse">
<stop stop-color="#B2B2B2"/>
<stop offset="1" stop-color="#B2B2B2" stop-opacity="0"/>
</linearGradient>
<linearGradient id="paint3_linear_213_2" x1="277.873" y1="8.70211e-06" x2="194.872" y2="235.868" gradientUnits="userSpaceOnUse">
<stop stop-color="#80A820"/>
<stop offset="1" stop-color="#B2B2B2" stop-opacity="0"/>
</linearGradient>
<linearGradient id="paint4_linear_213_2" x1="277.872" y1="2.92446e-05" x2="194.87" y2="235.867" gradientUnits="userSpaceOnUse">
<stop stop-color="#80A820"/>
<stop offset="1" stop-color="#B2B2B2" stop-opacity="0"/>
</linearGradient>
<linearGradient id="paint5_linear_213_2" x1="277.872" y1="0.000906009" x2="194.871" y2="235.867" gradientUnits="userSpaceOnUse">
<stop stop-color="#80A820"/>
<stop offset="1" stop-color="#B2B2B2" stop-opacity="0"/>
</linearGradient>
<linearGradient id="paint6_linear_213_2" x1="277.871" y1="2.72117e-06" x2="194.871" y2="235.868" gradientUnits="userSpaceOnUse">
<stop stop-color="#80A820"/>
<stop offset="1" stop-color="#B2B2B2" stop-opacity="0"/>
</linearGradient>
<linearGradient id="paint7_linear_213_2" x1="277.873" y1="2.23596e-05" x2="194.871" y2="235.867" gradientUnits="userSpaceOnUse">
<stop stop-color="#80A820"/>
<stop offset="1" stop-color="#B2B2B2" stop-opacity="0"/>
</linearGradient>
<linearGradient id="paint8_linear_213_2" x1="277.872" y1="0.00125363" x2="194.871" y2="235.867" gradientUnits="userSpaceOnUse">
<stop stop-color="#80A820"/>
<stop offset="1" stop-color="#B2B2B2" stop-opacity="0"/>
</linearGradient>
<linearGradient id="paint9_linear_213_2" x1="277.875" y1="-4.27962e-07" x2="194.871" y2="235.865" gradientUnits="userSpaceOnUse">
<stop stop-color="#80A820"/>
<stop offset="1" stop-color="#2C2F25" stop-opacity="0"/>
</linearGradient>
<linearGradient id="paint10_linear_213_2" x1="277.874" y1="1.35604e-05" x2="194.872" y2="235.867" gradientUnits="userSpaceOnUse">
<stop stop-color="#80A820"/>
<stop offset="1" stop-color="#B2B2B2" stop-opacity="0"/>
</linearGradient>
<linearGradient id="paint11_linear_213_2" x1="277.869" y1="-3.42376e-06" x2="194.868" y2="235.868" gradientUnits="userSpaceOnUse">
<stop stop-color="#80A820"/>
<stop offset="1" stop-color="#B2B2B2" stop-opacity="0"/>
</linearGradient>
<linearGradient id="paint12_linear_213_2" x1="277.871" y1="1.4838e-05" x2="194.869" y2="235.867" gradientUnits="userSpaceOnUse">
<stop stop-color="#80A820"/>
<stop offset="1" stop-color="#2C2F25" stop-opacity="0"/>
</linearGradient>
<clipPath id="clip0_213_2">
<rect width="450" height="254" fill="white"/>
</clipPath>
</defs>
</svg>
